<?xml version="1.0" encoding="UTF-8"?>
<svg xmlns="http://www.w3.org/2000/svg" viewBox="0 0 1200 820" font-family="-apple-system, BlinkMacSystemFont, 'Segoe UI', Roboto, sans-serif">
  <defs>
    <marker id="arrow" viewBox="0 0 10 10" refX="9" refY="5" markerWidth="6" markerHeight="6" orient="auto-start-reverse">
      <path d="M0,0 L10,5 L0,10 z" fill="#3b82f6"/>
    </marker>
    <marker id="arrow-red" viewBox="0 0 10 10" refX="9" refY="5" markerWidth="6" markerHeight="6" orient="auto-start-reverse">
      <path d="M0,0 L10,5 L0,10 z" fill="#ef4444"/>
    </marker>
  </defs>

  <!-- ===== Title ===== -->
  <text x="600" y="40" font-size="26" font-weight="700" fill="#1f2937" text-anchor="middle">RESTHeart Request Lifecycle</text>

  <!-- ===== Section: Main Request Flow ===== -->
  <text x="600" y="80" font-size="16" font-weight="600" fill="#3b82f6" text-anchor="middle">Main Request Flow</text>

  <!-- Row 1: horizontal pipeline -->
  <!-- HTTP Request -->
  <rect x="20"   y="110" width="130" height="60" rx="12" fill="#6366f1"/>
  <text x="85"   y="146" font-size="14" font-weight="600" fill="#ffffff" text-anchor="middle">HTTP Request</text>

  <!-- REQUEST_BEFORE_AUTH -->
  <rect x="190"  y="110" width="170" height="60" rx="10" fill="#10b981"/>
  <text x="275"  y="138" font-size="13" font-weight="700" fill="#ffffff" text-anchor="middle">REQUEST_BEFORE_AUTH</text>
  <text x="275"  y="156" font-size="11" font-weight="400" fill="#ffffff" text-anchor="middle">(Interceptor)</text>

  <!-- Authentication -->
  <rect x="400"  y="110" width="150" height="60" rx="10" fill="#8b5cf6"/>
  <text x="475"  y="146" font-size="14" font-weight="600" fill="#ffffff" text-anchor="middle">Authentication</text>

  <!-- Authorization -->
  <rect x="590"  y="110" width="150" height="60" rx="10" fill="#8b5cf6"/>
  <text x="665"  y="146" font-size="14" font-weight="600" fill="#ffffff" text-anchor="middle">Authorization</text>

  <!-- REQUEST_AFTER_AUTH -->
  <rect x="780"  y="110" width="170" height="60" rx="10" fill="#10b981"/>
  <text x="865"  y="138" font-size="13" font-weight="700" fill="#ffffff" text-anchor="middle">REQUEST_AFTER_AUTH</text>
  <text x="865"  y="156" font-size="11" font-weight="400" fill="#ffffff" text-anchor="middle">(Interceptor)</text>

  <!-- Horizontal arrows (row 1) -->
  <line x1="150" y1="140" x2="186"  y2="140" stroke="#3b82f6" stroke-width="2" marker-end="url(#arrow)"/>
  <line x1="360" y1="140" x2="396"  y2="140" stroke="#3b82f6" stroke-width="2" marker-end="url(#arrow)"/>
  <line x1="550" y1="140" x2="586"  y2="140" stroke="#3b82f6" stroke-width="2" marker-end="url(#arrow)"/>
  <line x1="740" y1="140" x2="776"  y2="140" stroke="#3b82f6" stroke-width="2" marker-end="url(#arrow)"/>

  <!-- Dashed red arrow Authorization → failure path -->
  <path d="M 665 170 Q 700 220 740 250" stroke="#ef4444" stroke-width="2" stroke-dasharray="6 4" fill="none" marker-end="url(#arrow-red)"/>

  <!-- ===== Vertical pipeline from Authentication ===== -->
  <!-- arrow down to Service Handler -->
  <line x1="475" y1="170" x2="475" y2="216" stroke="#3b82f6" stroke-width="2" marker-end="url(#arrow)"/>

  <!-- Service Handler -->
  <rect x="400" y="220" width="150" height="60" rx="10" fill="#f59e0b"/>
  <text x="475" y="256" font-size="14" font-weight="600" fill="#ffffff" text-anchor="middle">Service Handler</text>

  <!-- arrow down -->
  <line x1="475" y1="280" x2="475" y2="326" stroke="#3b82f6" stroke-width="2" marker-end="url(#arrow)"/>

  <!-- RESPONSE / RESPONSE_ASYNC -->
  <rect x="370" y="330" width="210" height="60" rx="10" fill="#10b981"/>
  <text x="475" y="358" font-size="13" font-weight="700" fill="#ffffff" text-anchor="middle">RESPONSE &amp; RESPONSE_ASYNC</text>
  <text x="475" y="376" font-size="11" font-weight="400" fill="#ffffff" text-anchor="middle">(Interceptors)</text>

  <!-- arrow down -->
  <line x1="475" y1="390" x2="475" y2="436" stroke="#3b82f6" stroke-width="2" marker-end="url(#arrow)"/>

  <!-- HTTP Response -->
  <rect x="400" y="440" width="150" height="60" rx="12" fill="#6366f1"/>
  <text x="475" y="476" font-size="14" font-weight="600" fill="#ffffff" text-anchor="middle">HTTP Response</text>

  <!-- ===== Section: Failure Path ===== -->
  <text x="600" y="560" font-size="16" font-weight="600" fill="#ef4444" text-anchor="middle">Authentication/Authorization Failure Path</text>

  <!-- REQUEST_AFTER_FAILED_AUTH -->
  <rect x="380" y="590" width="220" height="60" rx="10" fill="#b91c1c"/>
  <text x="490" y="618" font-size="13" font-weight="700" fill="#ffffff" text-anchor="middle">REQUEST_AFTER_FAILED_AUTH</text>
  <text x="490" y="636" font-size="11" font-weight="400" fill="#ffffff" text-anchor="middle">(Interceptor)</text>

  <!-- arrow down -->
  <line x1="490" y1="650" x2="490" y2="696" stroke="#ef4444" stroke-width="2" marker-end="url(#arrow-red)"/>

  <!-- Error Response -->
  <rect x="380" y="700" width="220" height="50" rx="10" fill="#dc2626"/>
  <text x="490" y="731" font-size="14" font-weight="700" fill="#ffffff" text-anchor="middle">Error Response (401/403)</text>

  <!-- ===== Legend ===== -->
  <rect x="780" y="580" width="280" height="170" rx="12" fill="none" stroke="#9ca3af" stroke-width="1"/>
  <text x="920" y="608" font-size="14" font-weight="700" fill="#1f2937" text-anchor="middle">Legend</text>

  <rect x="800" y="630" width="18" height="18" rx="4" fill="#6366f1"/>
  <text x="828" y="645" font-size="13" fill="#1f2937">Main Request Flow</text>

  <rect x="800" y="660" width="18" height="18" rx="4" fill="#10b981"/>
  <text x="828" y="675" font-size="13" fill="#1f2937">Interceptor Points</text>

  <rect x="800" y="690" width="18" height="18" rx="4" fill="#f59e0b"/>
  <text x="828" y="705" font-size="13" fill="#1f2937">Service Handler</text>

  <rect x="800" y="720" width="18" height="18" rx="4" fill="#dc2626"/>
  <text x="828" y="735" font-size="13" fill="#1f2937">Error Path / Failure</text>
</svg>
