<svg xmlns="http://www.w3.org/2000/svg" style="display: none;"><symbol id="mongodb" viewBox="15.7 368 891.5 966.6"><g id="Layer_1"><path style="fill:#81C365" d="M210,404c94-24,189.4-28.1,246.6-23.8c31.5,0,54.6,0.1,77.6,0c31.6-0.1,62.4,5.6,93.4,10.8 c24.1,4,48.3,7.4,71.9,13.5c44.6,11.5,87.1,27.2,126.1,52.9c21.3,14.1,35.6,32.2,42.6,54.7c9.8,31.6,15.9,64.1,20,97.4 c4.3,34.7,5.1,69.2,4.7,103.9c-0.7,60.1-12.2,118.7-25.7,177c-13.4,58-39.2,110.8-71.6,159.3c-40.2,60.1-87.6,114.6-144.6,160.8 c-50.7,41-104.8,75.9-162.2,106.4c-18.5,9.9-34.2,8.6-52.8-0.2c-56.3-26.5-109.2-58.8-156.3-98.6 c-84.3-71.2-156.2-153.2-199.4-256.9c-16.1-38.7-26.9-78.9-35.9-119.8C28,765.7,31.3,689,34.1,612.8c1.4-39.5,12.1-78.6,28-115.8 c8.2-19.3,55.8-55.5,73.9-65L210,404z"/><path style="fill:#41301F;" d="M196,476c31.6-6.8,133.5-20,165.3-24.8c49.8-7.5,99.4-5.5,148.9-4.1c71.3,2,142.2,10.6,209.9,35.4 c21.8,8,43.7,15.1,63.5,28.9c11.5,8.1,18.2,15.9,21.6,29.2c7.7,30.3,16.1,60.2,16.5,91.9c0.2,16.6,6,33.2,5,49.6 c-4.3,66.3-8.8,132.1-27.9,196.9c-17.4,59.2-43.3,112.3-80.3,160.8c-14.9,19.6-29.4,39.7-46.2,57.6 c-60.5,64.5-129.9,117.4-211.4,155.3c-52.3-22.8-98.4-53.3-139.5-89.1c-69.5-60.7-133.1-127.8-171.8-213.5 c-17.9-39.7-29.9-81.6-38.8-124.6c-12.5-60.8-13.3-122-11-183.3c1.4-37,9.7-73.3,19.4-109c2.8-10.3,28.5-35.1,38.9-41L196,476z"/> </g><g id="Layer_2"> <g><path style="fill:#FFFFFF;" d="M472.2,1183l-18.5-6.3c0,0,2.3-94.2-31.5-100.9c-22.5-26.1,3.6-1108.5,84.7-3.6c0,0-27.9,14-32.9,37.9 C468.6,1133.4,472.2,1183,472.2,1183L472.2,1183z"/><path style="fill:#A6A385;" d="M472.2,1183l-18.5-6.3c0,0,2.3-94.2-31.5-100.9c-22.5-26.1,3.6-1108.5,84.7-3.6c0,0-27.9,14-32.9,37.9 C468.6,1133.4,472.2,1183,472.2,1183L472.2,1183z"/><path style="fill:#FFFFFF;" d="M482.1,1091.9c0,0,161.8-106.3,123.9-327.6c-36.5-160.9-122.6-213.6-132-233.9 c-10.4-14.4-20.3-39.6-20.3-39.6l6.8,447.4C460.4,938.7,446.5,1075.3,482.1,1091.9"/><path style="fill:#499D4A;" d="M482.1,1091.9c0,0,161.8-106.3,123.9-327.6c-36.5-160.9-122.6-213.6-132-233.9 c-10.4-14.4-20.3-39.6-20.3-39.6l6.8,447.4C460.4,938.7,446.5,1075.3,482.1,1091.9"/><path style="fill:#FFFFFF;" d="M444.2,1097.8c0,0-151.9-103.6-142.8-286.1c8.6-182.5,115.8-272.2,136.5-288.4c13.5-14.4,14-19.8,14.9-34.2 c9.5,20.3,7.7,303.3,9,336.6C465.8,954.1,454.6,1073.5,444.2,1097.8z"/><path style="fill:#58AA50;" d="M444.2,1097.8c0,0-151.9-103.6-142.8-286.1c8.6-182.5,115.8-272.2,136.5-288.4c13.5-14.4,14-19.8,14.9-34.2 c9.5,20.3,7.7,303.3,9,336.6C465.8,954.1,454.6,1073.5,444.2,1097.8z"/> </g> </g></symbol><symbol id="twitter" viewBox="0 0 512 512"><path d="M512,97.248c-19.04,8.352-39.328,13.888-60.48,16.576c21.76-12.992,38.368-33.408,46.176-58.016 c-20.288,12.096-42.688,20.64-66.56,25.408C411.872,60.704,384.416,48,354.464,48c-58.112,0-104.896,47.168-104.896,104.992 c0,8.32,0.704,16.32,2.432,23.936c-87.264-4.256-164.48-46.08-216.352-109.792c-9.056,15.712-14.368,33.696-14.368,53.056 c0,36.352,18.72,68.576,46.624,87.232c-16.864-0.32-33.408-5.216-47.424-12.928c0,0.32,0,0.736,0,1.152 c0,51.008,36.384,93.376,84.096,103.136c-8.544,2.336-17.856,3.456-27.52,3.456c-6.72,0-13.504-0.384-19.872-1.792 c13.6,41.568,52.192,72.128,98.08,73.12c-35.712,27.936-81.056,44.768-130.144,44.768c-8.608,0-16.864-0.384-25.12-1.44 C46.496,446.88,101.6,464,161.024,464c193.152,0,298.752-160,298.752-298.688c0-4.64-0.16-9.12-0.384-13.568 C480.224,136.96,497.728,118.496,512,97.248z"/></symbol><symbol id="plane" viewBox="0 0 512 512"><path style="fill:#314E55;" d="M385.813,414.41c1.856,1.856,4.288,2.784,6.719,2.784s4.863-0.928,6.719-2.784 c3.712-3.712,3.712-9.726,0-13.438l-13.439-13.438l40.32-40.315c1.782-1.782,2.784-4.195,2.784-6.719s-1.002-4.937-2.784-6.719 l-93.782-93.783l84.849-45.684c2.645-1.429,4.459-4.018,4.895-6.988c0.436-2.979-0.557-5.977-2.682-8.102l-29.568-29.568 c-2.367-2.357-5.782-3.313-9.025-2.496l-113.046,28.261l-7.448-7.448l170.422-94.686c2.603-1.448,4.38-4.037,4.793-6.988 c0.413-2.951-0.58-5.93-2.691-8.037L379.094,4.51c-2.413-2.413-5.939-3.332-9.22-2.45L153.437,61.082l-36.479-36.48 C91.047-1.299,48.876-1.272,22.946,24.667c-25.934,25.939-25.962,68.11-0.065,94.011l36.485,36.485L0.334,371.6 c-0.896,3.285,0.037,6.803,2.45,9.216l53.762,53.762c1.796,1.791,4.218,2.784,6.719,2.784c0.436,0,0.877-0.028,1.318-0.093 c2.951-0.408,5.54-2.19,6.988-4.798l94.68-170.424l7.444,7.444L145.43,382.541c-0.807,3.239,0.139,6.663,2.501,9.021l29.568,29.568 c1.796,1.8,4.218,2.784,6.719,2.784c0.459,0,0.919-0.037,1.378-0.102c2.975-0.436,5.564-2.255,6.988-4.9l45.688-84.845 l93.784,93.782c1.856,1.856,4.288,2.784,6.719,2.784s4.863-0.928,6.719-2.784l26.88-26.877L385.813,414.41z"/><path style="fill:#E4AD40;" d="M338.775,407.691L36.319,105.24c-18.487-18.487-18.459-48.611,0.065-67.135 c18.524-18.515,48.639-18.561,67.135-0.065l103.522,103.524l30.938,30.941c0.002,0.002,0.005,0.003,0.005,0.003l20.144,20.144 c0.003,0.003,0.005,0.007,0.008,0.01l21.597,21.595l126.241,126.243l-33.601,33.596l-40.318-40.315 c-3.712-3.712-9.726-3.712-13.438,0s-3.712,9.726,0,13.438l40.317,40.315L338.775,407.691z"/><path style="fill:#314E55;" d="M49.823,51.544c-14.816,14.821-14.816,38.941,0,53.762c1.851,1.856,4.288,2.784,6.719,2.784 s4.863-0.928,6.719-2.784c3.712-3.712,3.712-9.726,0-13.438c-7.406-7.415-7.406-19.47,0-26.886c7.415-7.406,19.475-7.406,26.881,0 c3.712,3.712,9.735,3.712,13.438,0c3.712-3.712,3.712-9.726,0-13.438C88.759,36.732,64.644,36.732,49.823,51.544z"/><g> <polygon style="fill:#F28544;" points="61.075,412.23 20.125,371.275 74.843,170.649 152.274,248.076 "/> <polygon style="fill:#F28544;" points="181.907,398.661 165.174,381.929 189.369,285.17 224.24,320.037 "/> <polygon style="fill:#F28544;" points="380.212,166.9 396.941,183.633 318.321,225.961 291.063,198.711 283.447,191.094 "/> <polygon style="fill:#F28544;" points="168.919,76.564 369.554,21.846 410.504,62.791 246.352,153.999 186.28,93.926 "/> </g><g> <path style="fill:#314E55;" d="M363.614,437.018c-3.712-3.712-9.726-3.712-13.438,0c-3.712,3.712-3.712,9.726,0,13.438 l50.054,50.05c1.856,1.856,4.288,2.784,6.719,2.784c2.431,0,4.863-0.928,6.719-2.784c3.712-3.712,3.712-9.726,0-13.438 L363.614,437.018z"/> <path style="fill:#314E55;" d="M509.216,443.746l-80.917-80.917c-3.712-3.712-9.726-3.712-13.438,0 c-3.712,3.712-3.712,9.726,0,13.438l80.917,80.917c1.856,1.856,4.288,2.784,6.719,2.784s4.863-0.928,6.719-2.784 C512.928,453.472,512.928,447.458,509.216,443.746z"/> <path style="fill:#314E55;" d="M439.909,441.639c-3.712-3.712-9.726-3.712-13.438,0c-3.712,3.712-3.712,9.726,0,13.438 l52.407,52.407c1.856,1.856,4.288,2.784,6.719,2.784s4.863-0.928,6.719-2.784c3.712-3.712,3.712-9.726,0-13.438L439.909,441.639z"/> </g></symbol><symbol id="torch" viewBox="0 0 512 512"><path style="fill:#314E55;" d="M364.743,194.832c0-5.009-4.053-9.062-9.062-9.062h-27.267c10.686-27.803,12.701-46.923,6.612-61.009 c-7.035-16.301-23.31-22.159-39.053-27.823c-13.531-4.876-27.513-9.903-37.734-21.398c-8.009-9.018-11.239-17.646-9.867-26.372 c2.929-18.611,25.575-32.15,25.788-32.274c3.54-2.071,5.248-6.248,4.186-10.195C277.274,2.743,273.69,0,269.593,0 c-1.664,0-41.248,0.761-93.212,66.894c-14.699,18.708-20.796,38.929-18.115,60.097c3.133,24.721,17.678,45.408,29.768,58.779 h-31.715c-5.009,0-9.062,4.053-9.062,9.062c0,37.803,19.408,71.127,48.761,90.619h-3.451c-5.009,0-9.062,4.053-9.062,9.062 c0,5.009,4.053,9.062,9.062,9.062h9.817l17.404,200.151c0.407,4.681,4.327,8.274,9.026,8.274h54.372 c4.699,0,8.619-3.593,9.027-8.274l17.404-200.151h9.817c5.009,0,9.062-4.053,9.062-9.062s-4.053-9.062-9.062-9.062h-3.451 C345.335,265.959,364.743,232.634,364.743,194.832z"/><path style="fill:#E65F58;" d="M176.248,124.708c-2.053-16.177,2.788-31.858,14.381-46.611 c16.345-20.805,31.071-34.398,43.257-43.274c-1.566,3.575-2.752,7.389-3.398,11.434c-2.274,14.257,2.504,28.159,14.212,41.319 c13.283,14.947,30.203,21.036,45.133,26.416c15.274,5.496,24.823,9.301,28.558,17.956c4.383,10.141,1.189,27.855-9.539,53.823 h-94.917C206.128,179.132,180.076,154.948,176.248,124.708z"/><polygon style="fill:#73C9C9;" points="274.876,493.876 237.124,493.876 220.575,303.575 291.425,303.575 "/><path style="fill:#E4AD40;" d="M256,285.451c-46.911,0-85.611-35.832-90.168-81.558h180.336 C341.611,249.619,302.911,285.451,256,285.451z"/></symbol><symbol id="feather" viewBox="0 0 512 512"><path style="fill:#314E55;" d="M485.009,136.345c-12.958,0-24.82-0.356-34.788-0.825l41.085-23.761 c3.56-2.061,5.415-6.174,4.6-10.208L476.905,7.695c-0.74-3.631-3.495-6.512-7.093-7.406c-3.598-0.904-7.383,0.361-9.725,3.218 c-1.115,1.354-112.414,136.038-192.718,168.311C180.317,206.798,87.121,295.039,87.121,370.635c0,13.98,5.393,26.075,15.888,36.027 l-84.294,84.289c-3.748,3.748-3.748,9.819,0,13.567c1.874,1.874,4.329,2.811,6.783,2.811s4.91-0.937,6.783-2.811l86.637-86.633 c31.616,16.964,80.606,20.251,113.38,20.251c18.898,0,32.38-1.077,33.983-1.209c2.071-0.173,4.029-1.012,5.575-2.394l62.69-55.752 c3.008-2.665,4.029-6.919,2.567-10.662c-1.443-3.682-4.994-6.1-8.938-6.1c-0.056,0-0.113,0-0.178,0 c-0.309,0.033-28.839,0.347-57.659-12.25c43.989-12.194,94.584-6.793,95.183-6.737c3.008,0.361,6.165-0.829,8.236-3.167 l54.473-61.458c2.221-2.497,2.97-5.968,1.996-9.163c-0.975-3.195-3.532-5.65-6.774-6.488l-39.173-10.133l64.115-10.958 c2.492-0.426,4.722-1.827,6.193-3.893c1.63-2.295,40.017-56.596,40.017-91.834C494.603,140.641,490.312,136.345,485.009,136.345z"/><path style="fill:#81A4E3;" d="M441.189,223.429l-104.253,17.816c-4.451,0.764-7.777,4.535-7.964,9.055s2.802,8.559,7.186,9.693 l67.319,17.418l-40.85,46.093c-17.343-1.401-75.199-4.127-119.581,15.628c-3.195,1.419-5.359,4.455-5.659,7.931 c-0.3,3.481,1.302,6.844,4.197,8.793c21.831,14.686,46.135,20.88,63.468,23.484l-43.521,38.71 c-33.374,2.324-115.73,2.028-144.925-24.838c-6.933-6.376-10.297-13.759-10.297-22.575c0-66.836,88.653-149.038,168.217-181.016 c68.958-27.71,155.156-121.572,187.49-158.764L475.724,98.6l-62.25,36.006c-3.588,2.08-5.444,6.235-4.582,10.302 c0.862,4.062,4.244,7.107,8.376,7.547c1.068,0.112,24.285,2.539,57.059,3.003C469.653,178.095,451.027,208.986,441.189,223.429z"/><g> <path style="fill:#314E55;" d="M327.848,492.812H85.509c-5.303,0-9.594,4.296-9.594,9.594S80.206,512,85.509,512h242.338 c5.303,0,9.594-4.296,9.594-9.594S333.151,492.812,327.848,492.812z"/> <path style="fill:#314E55;" d="M423.79,492.812h-47.971c-5.303,0-9.594,4.296-9.594,9.594s4.291,9.594,9.594,9.594h47.971 c5.303,0,9.594-4.296,9.594-9.594S429.093,492.812,423.79,492.812z"/> </g></symbol><symbol id="like" viewBox="0 0 51.997 51.997"><path d="M51.911,16.242C51.152,7.888,45.239,1.827,37.839,1.827c-4.93,0-9.444,2.653-11.984,6.905 c-2.517-4.307-6.846-6.906-11.697-6.906c-7.399,0-13.313,6.061-14.071,14.415c-0.06,0.369-0.306,2.311,0.442,5.478 c1.078,4.568,3.568,8.723,7.199,12.013l18.115,16.439l18.426-16.438c3.631-3.291,6.121-7.445,7.199-12.014 C52.216,18.553,51.97,16.611,51.911,16.242z"/></symbol><symbol id="lamp" viewBox="0 0 32 32"><path style="fill:#9b253a;" d="M16,0C9.924,0,5,4.924,5,11c0,4.031,3.688,8.303,5.031,12.055C12.034,28.65,11.812,32,16,32 c4.25,0,3.965-3.334,5.969-8.922C23.316,19.318,27,15,27,11C27,4.924,22.074,0,16,0z M18.592,27.176l-4.958,0.619 c-0.177-0.512-0.367-1.111-0.598-1.893c-0.003-0.01-0.007-0.021-0.009-0.031l6.188-0.773c-0.088,0.295-0.182,0.605-0.264,0.883 C18.82,26.43,18.703,26.82,18.592,27.176z M12.736,24.908c-0.182-0.602-0.387-1.236-0.615-1.908h7.766 c-0.123,0.359-0.246,0.719-0.352,1.059L12.736,24.908z M16,30c-1.013,0-1.479-0.117-1.997-1.25l4.238-0.531 C17.627,29.873,17.18,30,16,30z M20.672,21h-9.333c-0.498-1.08-1.096-2.16-1.686-3.217C8.348,15.448,7,13.033,7,11 c0-4.963,4.037-9,9-9s9,4.037,9,9c0,2.018-1.35,4.446-2.656,6.795C21.76,18.848,21.166,19.926,20.672,21z"/><path style="fill:#9b253a;" d="M16,5c-3.309,0-6,2.691-6,6c0,0.276,0.224,0.5,0.5,0.5S11,11.276,11,11c0-2.757,2.243-5,5-5 c0.276,0,0.5-0.224,0.5-0.5S16.275,5,16,5z"/></symbol><symbol id="github" viewBox="0 0 35.318 35.318"><path d="M23.71,34.689c-0.172,0.062-0.345,0.137-0.522,0.168c-0.678,0.121-1.112-0.229-1.116-0.922 c-0.009-1.287-0.009-2.572,0.012-3.859c0.022-1.48-0.012-2.941-1.139-4.162c0.67-0.12,1.266-0.204,1.849-0.338 c3.862-0.887,5.868-3.323,6.124-7.366c0.131-2.058-0.236-3.946-1.604-5.567c-0.099-0.114-0.104-0.373-0.057-0.539 c0.364-1.34,0.258-2.649-0.166-3.959c-0.105-0.327-0.279-0.428-0.602-0.407c-1.134,0.063-2.173,0.461-3.089,1.073 c-0.883,0.593-1.705,0.722-2.754,0.482c-2.31-0.521-4.635-0.369-6.94,0.165c-0.261,0.062-0.612-0.021-0.851-0.161 c-1.082-0.634-2.164-1.25-3.412-1.496c-0.965-0.188-1.049-0.14-1.305,0.793C7.816,9.77,7.784,10.947,8.113,12.13 c0.047,0.172-0.002,0.448-0.117,0.575c-2.557,2.853-1.631,8.244,0.092,10.309c1.34,1.604,3.12,2.326,5.096,2.701 c0.345,0.064,0.688,0.113,1.033,0.173c-0.296,0.77-0.562,1.497-0.863,2.212c-0.059,0.138-0.246,0.254-0.399,0.312 c-1.938,0.752-3.604,0.199-4.713-1.56c-0.593-0.938-1.354-1.639-2.488-1.842c-0.036-0.007-0.073-0.026-0.106-0.021 c-0.305,0.08-0.607,0.164-0.911,0.246c0.171,0.238,0.292,0.558,0.521,0.701c0.961,0.608,1.586,1.475,1.999,2.498 c0.649,1.604,1.909,2.319,3.546,2.459c0.799,0.065,1.606,0.01,2.481,0.01c0,0.996,0.036,2.133-0.015,3.265 c-0.026,0.61-0.639,0.854-1.373,0.604c-1.947-0.666-3.752-1.621-5.311-2.963C0.956,26.96-1.214,20.83,0.657,13.655 C2.522,6.503,7.383,2.116,14.651,0.739C24.708-1.163,34.235,6.161,35.233,16.37C36.021,24.418,31.284,31.949,23.71,34.689z M14.229,25.85c-0.006,0.014-0.01,0.024-0.016,0.038c0.018,0.003,0.036,0.006,0.055,0.009 C14.282,25.898,14.294,25.923,14.229,25.85z M9.679,29.031c0.157,0.097,0.307,0.22,0.477,0.273c0.062,0.02,0.177-0.121,0.38-0.271 c-0.282-0.107-0.448-0.201-0.623-0.225C9.845,28.8,9.757,28.953,9.679,29.031z M11.112,29.277c0.023,0.105,0.232,0.236,0.355,0.234 c0.119-0.002,0.235-0.16,0.354-0.25c-0.108-0.099-0.216-0.195-0.548-0.494C11.201,28.975,11.082,29.143,11.112,29.277z M12.87,28.854c-0.148,0.035-0.273,0.172-0.408,0.266c0.079,0.1,0.158,0.193,0.285,0.35c0.175-0.16,0.294-0.271,0.414-0.379 C13.061,29.004,12.944,28.836,12.87,28.854z M8.512,28.261c0.082,0.155,0.209,0.289,0.381,0.508 c0.115-0.188,0.24-0.332,0.218-0.361c-0.109-0.143-0.257-0.26-0.403-0.367C8.698,28.033,8.495,28.227,8.512,28.261z"/></symbol><symbol id="arrow" viewBox="0 0 451.847 451.847"><path d="M97.141,225.92c0-8.095,3.091-16.192,9.259-22.366L300.689,9.27c12.359-12.359,32.397-12.359,44.751,0 c12.354,12.354,12.354,32.388,0,44.748L173.525,225.92l171.903,171.909c12.354,12.354,12.354,32.391,0,44.744 c-12.354,12.365-32.386,12.365-44.745,0l-194.29-194.281C100.226,242.115,97.141,234.018,97.141,225.92z"/></symbol><symbol id="thumb" viewBox="0 0 32 32"><path style="fill:#fff;" d="M29.164,10.472c-1.25-0.328-4.189-0.324-8.488-0.438c0.203-0.938,0.25-1.784,0.25-3.286 C20.926,3.16,18.312,0,16,0c-1.633,0-2.979,1.335-3,2.977c-0.022,2.014-0.645,5.492-4,7.256c-0.246,0.13-0.95,0.477-1.053,0.522 L8,10.8C7.475,10.347,6.747,10,6,10H3c-1.654,0-3,1.346-3,3v16c0,1.654,1.346,3,3,3h3c1.19,0,2.186-0.719,2.668-1.727 c0.012,0.004,0.033,0.01,0.047,0.012c0.066,0.018,0.144,0.037,0.239,0.062C8.972,30.352,8.981,30.354,9,30.359 c0.576,0.143,1.685,0.408,4.055,0.953C13.563,31.428,16.247,32,19.027,32h5.467c1.666,0,2.867-0.641,3.582-1.928 c0.01-0.02,0.24-0.469,0.428-1.076c0.141-0.457,0.193-1.104,0.023-1.76c1.074-0.738,1.42-1.854,1.645-2.58 c0.377-1.191,0.264-2.086,0.002-2.727c0.604-0.57,1.119-1.439,1.336-2.766c0.135-0.822-0.01-1.668-0.389-2.372 c0.566-0.636,0.824-1.436,0.854-2.176l0.012-0.209c0.007-0.131,0.013-0.212,0.013-0.5C32,12.643,31.125,11.032,29.164,10.472z M7,29c0,0.553-0.447,1-1,1H3c-0.553,0-1-0.447-1-1V13c0-0.553,0.447-1,1-1h3c0.553,0,1,0.447,1,1V29z M29.977,14.535 C29.957,15.029,29.75,16,28,16c-1.5,0-2,0-2,0c-0.277,0-0.5,0.224-0.5,0.5S25.723,17,26,17c0,0,0.438,0,1.938,0 s1.697,1.244,1.6,1.844C29.414,19.59,29.064,21,27.375,21C25.688,21,25,21,25,21c-0.277,0-0.5,0.223-0.5,0.5 c0,0.275,0.223,0.5,0.5,0.5c0,0,1.188,0,1.969,0c1.688,0,1.539,1.287,1.297,2.055C27.947,25.064,27.752,26,25.625,26 c-0.719,0-1.631,0-1.631,0c-0.277,0-0.5,0.223-0.5,0.5c0,0.275,0.223,0.5,0.5,0.5c0,0,0.693,0,1.568,0 c1.094,0,1.145,1.035,1.031,1.406c-0.125,0.406-0.273,0.707-0.279,0.721C26.012,29.672,25.525,30,24.494,30h-5.467 c-2.746,0-5.47-0.623-5.54-0.639c-4.154-0.957-4.373-1.031-4.634-1.105c0,0-0.846-0.143-0.846-0.881L8,13.563 c0-0.469,0.299-0.893,0.794-1.042C8.856,12.497,8.94,12.471,9,12.446c4.568-1.892,5.959-6.04,6-9.446c0.006-0.479,0.375-1,1-1 c1.057,0,2.926,2.122,2.926,4.748C18.926,9.119,18.83,9.529,18,12c10,0,9.93,0.144,10.812,0.375 C29.906,12.688,30,13.594,30,13.906C30,14.249,29.99,14.199,29.977,14.535z"/><path style="fill:#fff;" d="M4.5,26C3.672,26,3,26.672,3,27.5S3.672,29,4.5,29S6,28.328,6,27.5S5.328,26,4.5,26z M4.5,28 C4.225,28,4,27.775,4,27.5S4.225,27,4.5,27S5,27.225,5,27.5S4.775,28,4.5,28z"/></symbol><symbol id="chat" viewBox="0 0 370 370"><path style="fill:#101010;" d="M314.834,50.23C280.024,20.045,233.915,3.423,185,3.423c-48.915,0-95.024,16.622-129.834,46.807 C19.593,81.077,0,122.317,0,166.351c0,43.132,19.228,84.073,53.263,114.441c-15.777,27.354-42.246,53.008-42.551,53.302 c-5.764,5.544-7.408,14.117-4.108,21.4c3.079,6.789,9.832,11.083,17.188,11.083c0.539,0,1.083-0.023,1.628-0.07 c3.169-0.273,76.435-6.887,140.011-38.139c6.518,0.605,13.079,0.912,19.57,0.912c48.915,0,95.024-16.623,129.834-46.807 C350.407,251.624,370,210.385,370,166.351C370,122.317,350.407,81.077,314.834,50.23z M90.611,185 c-15.741,0-28.551-12.808-28.551-28.551c0-15.742,12.81-28.55,28.551-28.55c15.744,0,28.551,12.808,28.551,28.55 C119.162,172.192,106.355,185,90.611,185z M185,185c-15.742,0-28.551-12.808-28.551-28.551c0-15.742,12.809-28.55,28.551-28.55 s28.551,12.808,28.551,28.55C213.551,172.192,200.742,185,185,185z M279.389,185c-15.744,0-28.551-12.808-28.551-28.551 c0-15.742,12.807-28.55,28.551-28.55c15.741,0,28.551,12.808,28.551,28.55C307.94,172.192,295.13,185,279.389,185z"/></symbol><symbol id="search" viewBox="0 0 250.313 250.313"><title>search</title><path style="fill-rule:evenodd;clip-rule:evenodd;" d="M244.186,214.604l-54.379-54.378c-0.289-0.289-0.628-0.491-0.93-0.76 c10.7-16.231,16.945-35.66,16.945-56.554C205.822,46.075,159.747,0,102.911,0S0,46.075,0,102.911 c0,56.835,46.074,102.911,102.91,102.911c20.895,0,40.323-6.245,56.554-16.945c0.269,0.301,0.47,0.64,0.759,0.929l54.38,54.38 c8.169,8.168,21.413,8.168,29.583,0C252.354,236.017,252.354,222.773,244.186,214.604z M102.911,170.146 c-37.134,0-67.236-30.102-67.236-67.235c0-37.134,30.103-67.236,67.236-67.236c37.132,0,67.235,30.103,67.235,67.236 C170.146,140.044,140.043,170.146,102.911,170.146z"/></symbol></svg>